<?xml version="1.0" encoding="UTF-8"?>
<svg width="385px" height="100px" viewBox="0 0 385 100" version="1.1" xmlns="http://www.w3.org/2000/svg" xmlns:xlink="http://www.w3.org/1999/xlink">
    <!-- Generator: Sketch 47.1 (45422) - http://www.bohemiancoding.com/sketch -->
    <title>Slice 1</title>
    <desc>Created with Sketch.</desc>
    <defs></defs>
    <g id="Page-1" stroke="none" stroke-width="1" fill="none" fill-rule="evenodd">
        <rect id="Rectangle" x="-196" y="-185" width="753" height="471"></rect>
        <g id="Logo_MSD_Inventing_White" fill-rule="nonzero" fill="#FFFFFF">
            <path d="M168.114351,99.8612703 L168.114351,84.0460824 L171.190866,84.0460824 L171.190866,99.8612703 L168.114351,99.8612703 Z M184.615657,99.8612703 L178.322786,90.15019 L178.322786,99.8612703 L175.246272,99.8612703 L175.246272,84.0460824 L178.043103,84.0460824 L184.335974,93.7571627 L184.335974,84.0460824 L187.412488,84.0460824 L187.412488,99.8612703 L184.615657,99.8612703 Z M197.201398,99.8612703 L194.824092,99.8612703 L189.510112,84.0460824 L192.726468,84.0460824 L195.942824,94.3120815 L199.15918,84.0460824 L202.375537,84.0460824 L197.201398,99.8612703 Z M204.613002,99.8612703 L204.613002,84.0460824 L215.10112,84.0460824 L215.10112,86.8206768 L207.689516,86.8206768 L207.689516,90.5663792 L213.982387,90.5663792 L213.982387,93.3409735 L207.689516,93.3409735 L207.689516,97.0866759 L215.10112,97.0866759 L215.10112,99.8612703 L204.613002,99.8612703 Z M227.966544,99.8612703 L221.673673,90.15019 L221.673673,99.8612703 L218.597159,99.8612703 L218.597159,84.0460824 L221.39399,84.0460824 L227.686861,93.7571627 L227.686861,84.0460824 L230.763376,84.0460824 L230.763376,99.8612703 L227.966544,99.8612703 Z M240.692127,86.8206768 L240.692127,99.8612703 L237.615613,99.8612703 L237.615613,86.8206768 L233.420366,86.8206768 L233.420366,84.0460824 L244.887374,84.0460824 L244.887374,86.8206768 L240.692127,86.8206768 Z M247.684206,99.8612703 L247.684206,84.0460824 L250.76072,84.0460824 L250.76072,99.8612703 L247.684206,99.8612703 Z M264.185511,99.8612703 L257.892641,90.15019 L257.892641,99.8612703 L254.816126,99.8612703 L254.816126,84.0460824 L257.612957,84.0460824 L263.905828,93.7571627 L263.905828,84.0460824 L266.982343,84.0460824 L266.982343,99.8612703 L264.185511,99.8612703 Z M280.826658,98.1965137 C279.568084,99.5838108 278.029827,100 276.351728,100 C274.533788,100 273.135372,99.4450811 272.156481,98.3352434 C270.618224,96.8092165 270.478382,95.0057301 270.478382,91.9536763 C270.478382,88.9016225 270.478382,87.0981362 272.156481,85.5721093 C273.275214,84.4622715 274.533788,83.9073527 276.351728,83.9073527 C280.127451,83.9073527 281.945391,86.2657579 282.364916,89.0403523 L279.288401,89.0403523 C278.868876,87.5143254 278.029827,86.681947 276.351728,86.681947 C275.512679,86.681947 274.813471,86.9594065 274.393946,87.5143254 C273.83458,88.2079739 273.694738,88.9016225 273.694738,91.9536763 C273.694738,95.0057301 273.83458,95.6993787 274.393946,96.3930273 C274.813471,96.9479462 275.512679,97.2254056 276.351728,97.2254056 C277.330619,97.2254056 278.029827,96.9479462 278.589193,96.3930273 C279.14856,95.8381085 279.288401,95.1444599 279.288401,94.3120815 L279.288401,93.7571627 L276.351728,93.7571627 L276.351728,91.121298 L282.364916,91.121298 L282.364916,93.4797032 C282.364916,95.6993787 281.945391,96.9479462 280.826658,98.1965137 Z M293.552241,85.0171904 L293.552241,91.5374872 L300.824003,91.5374872 L300.824003,92.6473249 L293.552241,92.6473249 L293.552241,99.8612703 L292.293667,99.8612703 L292.293667,84.0460824 L301.942736,84.0460824 L301.942736,85.1559201 L293.552241,85.1559201 L293.552241,85.0171904 Z M313.689428,98.4739731 C312.710537,99.4450811 311.451963,100 309.773864,100 C308.235606,100 306.837191,99.4450811 305.8583,98.4739731 C304.320042,96.9479462 304.320042,95.8381085 304.320042,91.9536763 C304.320042,88.0692442 304.459884,86.8206768 305.8583,85.4333796 C306.837191,84.4622715 308.095765,83.9073527 309.773864,83.9073527 C311.312121,83.9073527 312.710537,84.4622715 313.689428,85.4333796 C315.227685,86.9594065 315.227685,88.0692442 315.227685,91.9536763 C315.367527,95.8381085 315.227685,96.9479462 313.689428,98.4739731 Z M312.850378,86.1270282 C312.011329,85.2946499 311.032438,84.8784607 309.773864,84.8784607 C308.655131,84.8784607 307.536399,85.2946499 306.697349,86.1270282 C305.578617,87.2368659 305.438775,88.4854334 305.438775,91.9536763 C305.438775,95.2831896 305.578617,96.531757 306.697349,97.7803245 C307.536399,98.6127028 308.51529,99.028892 309.773864,99.028892 C310.892596,99.028892 312.011329,98.6127028 312.850378,97.7803245 C313.969111,96.6704868 314.108953,95.2831896 314.108953,91.9536763 C314.108953,88.6241631 313.969111,87.2368659 312.850378,86.1270282 Z M329.211842,99.8612703 L325.43612,92.5085952 L321.101031,92.5085952 L321.101031,99.8612703 L319.842457,99.8612703 L319.842457,84.0460824 L325.855645,84.0460824 C328.512634,84.0460824 330.470416,85.5721093 330.470416,88.3467037 C330.470416,90.7051089 329.072001,92.2311358 326.834536,92.6473249 L330.7501,100 L329.211842,100 L329.211842,99.8612703 Z M325.715803,85.0171904 L320.96119,85.0171904 L320.96119,91.5374872 L325.715803,91.5374872 C327.813427,91.5374872 329.211842,90.5663792 329.211842,88.3467037 C329.351684,86.1270282 327.813427,85.0171904 325.715803,85.0171904 Z M340.818693,99.8612703 L340.818693,84.0460824 L342.077267,84.0460824 L342.077267,98.8901623 L350.607603,98.8901623 L350.607603,99.8612703 L340.818693,99.8612703 Z M353.823959,99.8612703 L353.823959,84.0460824 L355.082533,84.0460824 L355.082533,99.8612703 L353.823959,99.8612703 Z M361.375404,85.0171904 L361.375404,91.5374872 L368.647166,91.5374872 L368.647166,92.6473249 L361.375404,92.6473249 L361.375404,99.8612703 L360.11683,99.8612703 L360.11683,84.0460824 L369.765898,84.0460824 L369.765898,85.1559201 L361.375404,85.1559201 L361.375404,85.0171904 Z M373.401779,99.8612703 L373.401779,84.0460824 L383.050847,84.0460824 L383.050847,85.1559201 L374.520512,85.1559201 L374.520512,91.3987575 L381.792273,91.3987575 L381.792273,92.5085952 L374.520512,92.5085952 L374.520512,98.8901623 L383.050847,98.8901623 L383.050847,99.8612703 L373.401779,99.8612703 Z M148.956056,22.7275469 L163.080055,22.7275469 L163.080055,68.0921648 L152.591937,68.0921648 L152.591937,37.5716268 L139.167146,68.0921648 L125.043147,37.5716268 L125.043147,68.0921648 L115.254237,68.0921648 L115.254237,22.7275469 L129.238394,22.7275469 L139.306988,46.1728693 L148.956056,22.7275469 Z M200.557596,36.1843296 C200.557596,27.1668979 193.565518,22.0338983 185.314865,22.0338983 C177.064212,22.0338983 168.114351,26.7507087 168.114351,36.0455999 C168.114351,44.0919235 177.064212,48.2538151 182.098509,49.5023825 C184.89534,50.1960311 192.02726,51.0284094 192.02726,56.0226793 C192.02726,60.7394897 187.132805,62.1267869 183.357083,62.1267869 C178.602469,62.1267869 175.805638,58.7972737 176.225163,53.8030038 L166.855777,53.8030038 C166.576094,65.1788407 174.267381,69.3407323 183.217241,69.479462 C193.705359,69.7569214 201.676329,65.3175704 201.676329,55.3290307 C201.676329,45.340491 192.586627,43.6757344 185.594548,41.4560589 C182.797717,40.6236806 177.76342,39.7913022 177.76342,35.2132215 C177.76342,31.3287894 181.119618,29.5253031 184.615657,29.5253031 C189.090587,29.5253031 191.328052,31.7449786 191.747577,36.1843296 L200.557596,36.1843296 L200.557596,36.1843296 Z M220.275258,22.7275469 L205.731734,22.7275469 L205.731734,68.0921648 L220.275258,68.0921648 C232.441475,68.0921648 244.607691,61.1556789 244.607691,45.4792207 C244.607691,29.8027625 232.441475,22.7275469 220.275258,22.7275469 Z M219.57605,59.7683817 L215.520644,59.7683817 L215.520644,59.7683817 L215.520644,31.05133 L219.57605,31.05133 C230.623534,31.05133 234.67894,38.2652753 234.67894,45.4792207 C234.67894,52.6931661 230.763376,59.7683817 219.57605,59.7683817 Z" id="Logotipo-+-Tagline"></path>
            <path d="M22.8463156,22.8463156 C22.8463156,10.2317855 33.0781011,0 45.6926311,0 C58.3071612,0 68.5389467,10.2317855 68.5389467,22.8463156 L22.8463156,22.8463156 Z M22.8463156,68.6791082 C22.8463156,56.0645781 33.0781011,45.8327926 45.6926311,45.8327926 C33.0781011,45.8327926 22.8463156,35.6010071 22.8463156,22.986477 C10.2317855,22.986477 0,33.2182625 0,45.8327926 C-5.99100285e-15,58.4473227 10.2317855,68.6791082 22.8463156,68.6791082 Z M22.8463156,68.6791082 C22.8463156,81.2936382 33.0781011,91.5254237 45.6926311,91.5254237 C58.3071612,91.5254237 68.5389467,81.2936382 68.5389467,68.6791082 L22.8463156,68.6791082 L22.8463156,68.6791082 Z M45.8327926,45.8327926 C58.4473227,45.8327926 68.6791082,56.0645781 68.6791082,68.6791082 C81.2936382,68.6791082 91.5254237,58.4473227 91.5254237,45.8327926 C91.5254237,33.2182625 81.2936382,22.986477 68.6791082,22.986477 C68.6791082,35.6010071 58.4473227,45.8327926 45.8327926,45.8327926 Z" id="Imagotipo"></path>
        </g>
    </g>
</svg>