<?xml version="1.0" encoding="UTF-8"?>
<svg width="329px" height="100px" viewBox="0 0 329 100" version="1.1" xmlns="http://www.w3.org/2000/svg" xmlns:xlink="http://www.w3.org/1999/xlink">
    <!-- Generator: Sketch 47.1 (45422) - http://www.bohemiancoding.com/sketch -->
    <title>Slice 1</title>
    <desc>Created with Sketch.</desc>
    <defs>
        <polygon id="path-1" points="0 97.8723404 328.9624 97.8723404 328.9624 1.5142513 0 1.5142513"></polygon>
    </defs>
    <g id="Page-1" stroke="none" stroke-width="1" fill="none" fill-rule="evenodd">
        <rect id="Rectangle" x="-211" y="-172" width="753" height="471"></rect>
        <g id="Logo_MSD_Salud_White">
            <polygon id="Fill-1" fill="#FFFFFF" points="39.0085964 2.94117647 27.7358458 39.3180099 17.2825253 2.94117647 0 2.94117647 0 52.9411765 9.90579224 52.9411765 9.90579224 10.063834 23.0911671 52.9411765 31.8348585 52.9411765 45.2921352 10.063834 45.2921352 52.9411765 55.8125 52.9411765 55.8125 2.94117647"></polygon>
            <g id="Group-24">
                <path d="M74.274664,35.6560016 C74.274664,37.9587716 74.137424,44.9354075 83.309944,44.9354075 C89.102224,44.9354075 92.756944,42.2263749 92.756944,38.0935769 C92.756944,33.7594942 89.653064,33.0134484 83.309944,31.5250502 C71.447144,28.6110397 64.964904,25.1559615 64.964904,16.6890807 C64.964904,8.62661582 70.826744,1.51517463 84.687984,1.51517463 C89.859864,1.51517463 95.998064,2.66748294 99.722344,7.27302288 C102.549864,10.7945805 102.549864,14.7242473 102.549864,16.3511441 L92.273784,16.3511441 C92.136544,14.6559213 91.583824,8.89991971 84.204824,8.89991971 C79.239744,8.89991971 75.998624,11.5406263 75.998624,15.5367724 C75.998624,20.0739864 79.653344,20.8883581 86.825544,22.6500602 C95.447224,24.6832196 103.927904,26.9859896 103.927904,36.5368527 C103.927904,45.34167 96.481224,52.4568045 82.687664,52.4568045 C63.584984,52.4568045 63.447744,40.3963468 63.378184,35.6560016 L74.274664,35.6560016 Z" id="Fill-2" fill="#FFFFFF"></path>
                <path d="M122.2752,43.24277 C123.44832,43.3092493 125.23996,43.3775753 126.48076,43.3775753 C131.03412,43.3775753 134.9652,43.0396387 138.0672,39.990823 C142.27464,35.8598715 142.54912,28.5434524 142.54912,26.1723565 C142.54912,19.2640466 140.1352,12.8949578 133.44616,11.0667764 C131.24092,10.4573826 128.4134,10.119446 122.2752,10.3890566 L122.2752,43.24277 Z M111.44828,2.46324368 L127.93024,2.53156965 C130.6882,2.53156965 139.1012,2.59804898 145.10216,6.93397832 C151.37572,11.4730389 153.58284,19.1957206 153.58284,26.1723565 C153.58284,41.2096106 145.37852,49.0670976 135.92964,50.7604737 C134.06656,51.1002569 131.99856,51.3033882 126.96392,51.3033882 L111.44828,51.3033882 L111.44828,2.46324368 Z" id="Fill-4" fill="#FFFFFF"></path>
                <path d="M168.343472,41.4142192 C168.480712,43.5821839 169.860632,46.0862385 174.137632,46.0862385 C177.792352,46.0862385 179.516312,44.0567724 179.516312,42.023613 C179.516312,40.4650422 178.687232,39.2462545 174.688472,38.1622722 L168.343472,36.468896 C165.515952,35.6563709 159.516872,33.9629948 159.516872,26.9863589 C159.516872,20.3476596 165.722752,16.2831875 174.758032,16.2831875 C181.928352,16.2831875 187.722512,19.5332878 187.998872,26.3751184 L178.687232,26.3751184 C178.412752,22.5821036 175.308872,22.3106463 173.722152,22.3106463 C170.964192,22.3106463 168.894312,23.5996066 168.894312,25.6973986 C168.894312,28.0001686 170.618272,28.4747571 173.654472,29.2891289 L179.929912,30.982505 C186.274912,32.6758812 189.239672,35.8595022 189.239672,40.5315215 C189.239672,46.4260217 184.067792,52.3186752 173.238992,52.3186752 C168.757072,52.3186752 164.481952,51.3731915 161.308512,48.1193978 C159.033712,45.7501485 158.826912,43.0392694 158.757352,41.4142192 L168.343472,41.4142192 Z" id="Fill-6" fill="#FFFFFF"></path>
                <path d="M204.067984,40.7361301 C204.067984,43.0389 205.654704,45.6149739 209.033064,45.6149739 C210.894264,45.6149739 212.411424,44.7322762 213.377744,43.6482939 C215.169384,41.4803292 215.308504,38.8396226 215.308504,35.1814131 C208.756704,34.6384986 204.067984,36.671658 204.067984,40.7361301 L204.067984,40.7361301 Z M216.618864,51.3044962 C216.272944,49.2048575 216.272944,47.64444 216.272944,46.6287836 C212.411424,52.1170213 207.790384,52.1170213 205.859624,52.1170213 C200.824984,52.1170213 198.550184,50.6951024 197.170264,49.4061421 C195.100384,47.3748294 194.137824,44.5974709 194.137824,41.8884384 C194.137824,39.1775592 195.100384,34.1639101 201.516824,31.2517463 C205.791944,29.3570855 211.930144,29.3570855 215.308504,29.3570855 C215.308504,27.1207949 215.238944,26.0368125 214.825344,24.8180249 C213.928584,22.310277 211.238304,21.9723404 210.273864,21.9723404 C208.824384,21.9723404 207.309104,22.5817342 206.412344,23.8688479 C205.654704,25.0211562 205.654704,26.1051385 205.654704,26.9176636 L195.653104,26.9176636 C195.724544,25.0876355 195.929464,21.4312726 199.584184,18.8551987 C202.757624,16.6207547 206.825944,16.0778402 210.136624,16.0778402 C213.033704,16.0778402 219.100464,16.5524287 222.548384,20.4820955 C224.894624,23.259454 224.962304,27.3239261 224.962304,28.882497 L225.031864,42.6326375 C225.031864,45.5448013 225.238664,48.4588117 225.859064,51.3044962 L216.618864,51.3044962 Z" id="Fill-8" fill="#FFFFFF"></path>
                <mask id="mask-2" fill="white">
                    <use xlink:href="#path-1"></use>
                </mask>
                <g id="Clip-11"></g>
                <polygon id="Fill-10" fill="#FFFFFF" mask="url(#mask-2)" points="234.0694 51.3035729 244.27592 51.3035729 244.27592 2.32862304 234.0694 2.32862304"></polygon>
                <path d="M263.240232,17.0958972 L263.240232,37.4847371 C263.240232,40.4652268 263.240232,45.0024408 268.688472,45.0024408 C275.240272,45.0024408 275.240272,40.1956162 275.240272,34.369442 L275.240272,17.0958972 L285.723152,17.0958972 L285.723152,39.6527017 C285.860392,47.0356002 285.928072,47.9164512 285.928072,48.7973023 C285.997632,49.7464793 286.067192,50.3558731 286.204432,51.3032035 L276.274272,51.3032035 L275.930232,46.7641429 C274.894352,48.2543878 272.275512,52.1840546 265.654152,52.1840546 C260.965432,52.1840546 257.102032,50.0844159 255.171272,47.5785147 C252.896472,44.8011562 252.896472,40.0589643 252.896472,38.3655881 L252.896472,17.0958972 L263.240232,17.0958972 Z" id="Fill-12" fill="#FFFFFF" mask="url(#mask-2)"></path>
                <path d="M310.620368,45.477214 C313.585128,45.477214 315.999048,43.7173585 317.102608,41.6158731 C318.619768,38.7720353 318.757008,35.2486311 318.757008,33.5552549 C318.757008,26.8500763 315.792248,23.1918667 311.171208,23.1918667 C304.344928,23.1918667 303.587288,31.2524849 303.587288,34.7075632 C303.587288,40.3970855 305.516168,45.477214 310.620368,45.477214 L310.620368,45.477214 Z M318.412968,2.39676435 L328.687168,2.39676435 L328.687168,45.7486712 C328.687168,47.7818306 328.826288,50.0162746 328.963528,51.3033882 L318.619768,51.3033882 L318.343408,46.3599117 C317.653448,47.5786993 316.965368,48.8658129 314.825928,50.2194059 C312.274768,51.8463027 309.584488,51.981108 308.069208,51.981108 C298.757568,51.981108 293.241648,45.6803452 293.241648,34.9771738 C293.241648,23.6646086 299.517088,16.6214934 308.621928,16.6214934 C314.895488,16.6214934 317.516208,20.074725 318.412968,21.2953593 L318.412968,2.39676435 Z" id="Fill-13" fill="#FFFFFF" mask="url(#mask-2)"></path>
                <path d="M173.562164,89.0195102 C173.530204,89.4516259 173.500124,89.9206744 173.466284,90.3546367 C173.246324,94.6093135 171.793084,97.8723404 166.858084,97.8723404 C159.584364,97.8723404 159.108724,93.3369731 159.108724,87.1248495 L159.108724,83.8008832 C159.300484,77.8676034 159.774244,73.4559615 166.858084,73.4559615 C170.809844,73.5150542 173.024484,75.5057407 173.342204,79.4834203 C173.406124,80.0706544 173.466284,80.6634283 173.436204,81.252509 L169.070844,81.252509 C168.882844,79.7604175 169.040764,76.9664392 166.858084,76.9664392 C163.378204,76.9664392 163.662084,81.0364512 163.662084,82.836933 L163.662084,89.2983541 C163.662084,91.2244079 163.821884,94.3637094 166.858084,94.3637094 C169.292684,94.3637094 169.008804,90.5097551 169.102804,89.0195102 L173.562164,89.0195102 Z" id="Fill-14" fill="#FFFFFF" mask="url(#mask-2)"></path>
                <path d="M192.756776,74.0136491 L197.182296,74.0136491 L197.182296,90.2623043 C197.182296,95.4181453 195.477136,97.8723404 189.690496,97.8723404 C183.839936,97.8723404 182.131016,95.4181453 182.131016,90.2623043 L182.131016,74.0136491 L186.556536,74.0136491 L186.556536,89.8892814 C186.556536,92.1274187 186.716336,94.3637094 189.720576,94.3637094 C192.598856,94.3637094 192.756776,92.1274187 192.756776,89.8892814 L192.756776,74.0136491 Z" id="Fill-15" fill="#FFFFFF" mask="url(#mask-2)"></path>
                <polygon id="Fill-16" fill="#FFFFFF" mask="url(#mask-2)" points="206.54244 97.3146527 210.96984 97.3146527 210.96984 74.0136491 206.54244 74.0136491"></polygon>
                <path d="M226.844748,93.8957688 C230.798388,93.8957688 231.050308,91.8459896 231.050308,85.103878 C231.050308,79.6064071 230.482548,77.4310558 227.824228,77.4310558 L224.915868,77.4310558 L224.915868,93.8957688 L226.844748,93.8957688 Z M220.488468,97.3139141 L220.488468,74.0129105 L229.723028,74.0129105 C230.798388,74.0129105 232.949108,74.4801124 234.310228,76.653617 C235.321668,78.269434 235.605548,80.8492011 235.605548,84.7013087 C235.605548,89.2994621 235.605548,94.6104215 231.969628,96.6915937 C230.986388,97.2492814 229.785068,97.3139141 228.679628,97.3139141 L220.488468,97.3139141 Z" id="Fill-17" fill="#FFFFFF" mask="url(#mask-2)"></path>
                <path d="M249.454192,87.993328 L253.249912,87.993328 L252.046712,81.3767884 C251.826752,80.2891128 251.730872,79.2346768 251.604912,78.1470012 C251.572952,77.6188599 251.509032,77.0907186 251.448872,76.5921236 L251.383072,76.5921236 C251.319152,77.0907186 251.257112,77.6188599 251.223272,78.1470012 C251.099192,79.2346768 251.003312,80.2891128 250.783352,81.3767884 L249.454192,87.993328 Z M242.844112,97.3133601 L248.506672,74.0160498 L254.483192,74.0160498 L259.859992,97.3133601 L255.116752,97.3133601 L253.945512,91.4114733 L248.758592,91.4114733 L247.589232,97.3133601 L242.844112,97.3133601 Z" id="Fill-18" fill="#FFFFFF" mask="url(#mask-2)"></path>
                <path d="M274.011692,94.6946287 L274.502372,95.1766038 L274.991172,95.1766038 C277.181372,95.1766038 278.897812,92.9273866 280.144252,88.4289522 L279.651692,87.9506704 C277.461492,88.6376234 275.664212,90.4030189 274.256092,93.25055 L274.011692,94.6946287 Z M283.778292,79.3434444 L284.024572,79.3434444 L285.007812,80.3073946 L285.007812,80.5493055 C283.297012,84.6359374 282.249852,88.0651626 281.858812,90.8388278 C281.204572,92.0890084 280.877452,93.4536813 280.877452,94.9365395 L280.877452,95.1766038 C281.204572,95.8192373 281.697132,96.1387073 282.351372,96.1387073 C283.703092,95.8450903 284.440052,95.5237736 284.556612,95.1766038 C285.094292,95.3372621 285.417652,95.6567322 285.539852,96.1387073 C285.539852,96.7813408 284.312212,97.3464151 281.858812,97.8265436 C280.225092,97.8265436 279.407292,96.6225291 279.407292,94.2126536 L278.914732,94.2126536 C277.162572,95.978049 275.609692,96.8625933 274.256092,96.8625933 C273.438292,96.8625933 272.866772,96.2199599 272.541532,94.9365395 C273.630052,91.2764833 275.510052,88.6283902 278.179652,86.9848735 L279.897972,86.5028984 L280.877452,86.7448093 L283.778292,79.3434444 Z" id="Fill-19" fill="#FFFFFF" mask="url(#mask-2)"></path>
                <path d="M289.04436,90.2240787 L289.04436,91.4299398 L289.78132,91.4299398 C290.59724,90.1262063 291.0052,88.7615335 291.0052,87.3340747 L290.75892,87.3340747 C290.2062,87.3340747 289.6328,88.2980249 289.04436,90.2240787 M291.98656,84.442224 C292.42272,84.442224 292.83256,84.8466399 293.2142,85.6462385 C292.55808,88.9129587 291.5786,91.3228342 290.27012,92.8758651 C289.98812,92.8758651 289.82456,93.2747411 289.78132,94.0780329 C290.00692,94.7391329 290.41488,95.221108 291.0052,95.5239582 L291.74216,95.5239582 C294.48508,95.5239582 296.60948,93.5979045 298.11912,89.7421036 L298.36352,89.7421036 C299.18132,89.7421036 299.672,90.065267 299.83368,90.7079004 C297.37464,95.0327499 294.34784,97.1970213 290.75892,97.1970213 C288.97104,96.2423043 287.88064,95.5608912 287.49148,95.1490887 L287.08164,92.6339542 C287.08164,87.7440305 288.71724,85.0146849 291.98656,84.442224" id="Fill-20" fill="#FFFFFF" mask="url(#mask-2)"></path>
                <path d="M312.188288,81.7664312 L313.169648,82.4903171 L313.169648,83.4524207 L312.680848,85.3803212 L312.680848,85.8641429 L312.925248,85.8641429 L318.076448,84.6564352 L318.320848,84.898346 C318.320848,85.5852991 316.277288,86.4679968 312.188288,87.5482858 C310.718128,90.0375672 309.981168,92.2849378 309.981168,94.2922441 C310.582768,94.7760658 311.152408,95.0161301 311.697608,95.0161301 L312.188288,95.0161301 L315.376768,92.6081012 L316.358128,92.6081012 L316.848808,93.0900763 L316.848808,93.3301405 C314.995128,95.5701244 313.442248,96.6891931 312.188288,96.6891931 C310.189848,96.6891931 308.881368,96.1315054 308.264728,95.0161301 L309.736768,88.2684785 L309.490488,88.0321076 L309.246088,88.2684785 L309.001688,88.2684785 C308.183888,88.0653473 307.774048,87.8234364 307.774048,87.5482858 L308.020328,86.3442714 L310.473728,86.3442714 C310.962528,86.246399 311.208808,85.6037656 311.208808,84.4182176 L310.962528,83.4524207 C311.225728,82.3296588 311.633688,81.7664312 312.188288,81.7664312" id="Fill-21" fill="#FFFFFF" mask="url(#mask-2)"></path>
                <path d="M320.216828,87.6542834 L320.955668,88.3781694 L320.955668,89.5840305 C319.972428,91.1887676 319.481748,92.5534404 319.481748,93.678049 L320.216828,94.4000883 L321.444468,94.4000883 L324.388548,91.5100843 L324.877348,91.5100843 C324.877348,92.3115295 325.040908,92.7122521 325.368028,92.7122521 C323.087588,95.6059494 321.207588,97.0500281 319.728028,97.0500281 C318.938428,97.0500281 318.201468,96.4073946 317.519028,95.1221277 C318.338708,92.4629546 318.827508,90.0567724 318.992948,87.8961943 L319.237348,87.6542834 L320.216828,87.6542834 Z" id="Fill-22" fill="#FFFFFF" mask="url(#mask-2)"></path>
                <path d="M322.475084,77.7448013 C322.475084,77.7448013 321.845284,74.3303493 319.329844,74.5759534 C316.810644,74.819711 315.554804,79.451104 322.475084,84.0861903 C322.475084,84.0861903 331.751004,78.9635889 327.928964,75.5528302 C324.106924,72.1383782 322.475084,77.7448013 322.475084,77.7448013" id="Fill-23" fill="#FFFFFF" mask="url(#mask-2)"></path>
            </g>
        </g>
    </g>
</svg>