<?xml version="1.0" encoding="UTF-8"?>
<svg width="36px" height="36px" viewBox="0 0 36 36" version="1.1" xmlns="http://www.w3.org/2000/svg" xmlns:xlink="http://www.w3.org/1999/xlink">
    <title></title>
    <desc></desc>
    <defs></defs>
    <g id="Page-1" stroke="none" stroke-width="1" fill-rule="evenodd">
        <path d="M25.8350954,1.02651094 C23.4776279,1.02651094 21.1694739,0.952731081 18.8687113,1.05133515 C17.2220757,1.12199755 15.7701538,1.7781649 14.7740652,3.19072014 C13.8654014,4.47926979 13.5674409,5.96779865 13.5040377,7.49327518 C13.4379783,9.08225549 13.4893707,10.6762006 13.4893707,12.3371134 L10,12.3371134 L10,18.010773 L13.4456005,18.010773 L13.4456005,35 L19.0337444,35 L19.0337444,17.9905673 C20.7900941,17.9905673 22.4801534,17.9819077 24.1700971,17.9977259 C24.5229146,18.0008434 24.6805565,17.9215214 24.7167044,17.5353028 C24.775719,16.9064999 24.9122265,16.2850864 25.0096988,15.6596318 C25.1796979,14.5679439 25.3450775,13.4755632 25.5214285,12.3242972 L19.0667741,12.3242972 C19.0667741,11.0668067 18.9863941,9.85434613 19.0892944,8.65747286 C19.1930031,7.44893798 19.9518783,6.76494442 21.1775581,6.66899597 C22.2677699,6.5835545 23.3666434,6.60687771 24.4617057,6.58771111 C24.9144208,6.57985974 25.3671358,6.58644104 25.8350954,6.58644104 L25.8350954,1.02651094 Z" id="Path"></path>
    </g>
</svg>
