<?xml version="1.0" encoding="UTF-8"?>
<svg width="50px" height="50px" viewBox="0 0 50 50" version="1.1" xmlns="http://www.w3.org/2000/svg" xmlns:xlink="http://www.w3.org/1999/xlink">
    <!-- Generator: Sketch 47.1 (45422) - http://www.bohemiancoding.com/sketch -->
    <title>Untitled 2</title>
    <desc>Created with Sketch.</desc>
    <defs>
        <polygon id="path-1" points="50 50 0 50 0 0 50 0 50 50"></polygon>
    </defs>
    <g id="Page-1" stroke="none" stroke-width="1" fill="none" fill-rule="evenodd">
        <g id="Facebook">
            <mask id="mask-2" fill="white">
                <use xlink:href="#path-1"></use>
            </mask>
            <g id="Clip-2"></g>
            <path d="M31.7233398,10.6499418 C29.7298828,10.6499418 27.778125,10.5875541 25.8326172,10.670933 C24.4402344,10.7306846 23.2125,11.2855348 22.3702148,12.479981 C21.6018555,13.569569 21.3499023,14.828258 21.2962891,16.1181896 C21.2404297,17.4618196 21.2838867,18.8096477 21.2838867,20.2141033 L18.3333008,20.2141033 L18.3333008,25.0117077 L21.246875,25.0117077 L21.246875,39.3776718 L25.972168,39.3776718 L25.972168,24.9946219 C27.4573242,24.9946219 28.8864258,24.9872994 30.3154297,25.0006751 C30.6137695,25.0033112 30.7470703,24.9362371 30.7776367,24.6096536 C30.8275391,24.0779425 30.9429687,23.5524799 31.0253906,23.0236001 C31.1691406,22.1004769 31.3089844,21.1767679 31.4581055,20.203266 L26.0000977,20.203266 C26.0000977,19.1399413 25.9321289,18.1146937 26.0191406,17.1026265 C26.1068359,16.0806984 26.7485352,15.5023185 27.7849609,15.4211852 C28.7068359,15.3489366 29.6360352,15.3686585 30.5620117,15.3524514 C30.9448242,15.3458123 31.3276367,15.3513774 31.7233398,15.3513774 L31.7233398,10.6499418 Z M23.3398437,0 L26.6601562,0 C27.2705078,0.0747871344 27.8830078,0.134831635 28.4907227,0.22660697 C34.3545898,1.11233658 39.3394531,3.69219982 43.3720703,8.04488915 C46.6767578,11.6118254 48.7652344,15.8042984 49.6089844,20.6008289 C49.7683594,21.5069639 49.8711914,22.4229598 50,23.334367 L50,26.6539004 C49.9682617,26.8093327 49.9274414,26.9635933 49.9063477,27.1205877 C49.7895508,27.9881575 49.7276367,28.8666623 49.555957,29.7231995 C48.3296875,35.8416854 45.287207,40.8771246 40.359668,44.7055229 C34.8,49.0250169 28.462207,50.688396 21.5030273,49.7435983 C15.6286133,48.9459339 10.6558594,46.2920646 6.62509766,41.940254 C3.32177734,38.3739035 1.23427734,34.1822116 0.390917969,29.3868527 C0.231640625,28.480913 0.12890625,27.5651123 0,26.6539004 L0,23.334367 C0.0745117187,22.7265019 0.134277344,22.1162935 0.225585937,21.5109669 C1.10986328,15.6480851 3.68876953,10.6634152 8.04189453,6.63115846 C11.6219727,3.31513988 15.8294922,1.22080722 20.6472656,0.385163506 C21.5402344,0.230317037 22.4420898,0.127118602 23.3398437,0 L23.3398437,0 Z" id="Fill-1" fill="#FFFFFF" mask="url(#mask-2)"></path>
        </g>
    </g>
</svg>