<?xml version="1.0" encoding="UTF-8"?>
<svg width="51px" height="50px" viewBox="0 0 51 50" version="1.1" xmlns="http://www.w3.org/2000/svg" xmlns:xlink="http://www.w3.org/1999/xlink">
    <title>Untitled</title>
    <g id="Page-1" stroke="none" stroke-width="1" fill="none" fill-rule="evenodd">
        <g id="Facebook" fill="#FFFFFF">
            <path d="M31.9771266,10.6499418 C29.9677219,10.6499418 28.00035,10.5875541 26.0392781,10.670933 C24.6357562,10.7306846 23.3982,11.2855348 22.5491766,12.479981 C21.7746703,13.569569 21.5207016,14.828258 21.4666594,16.1181896 C21.4103531,17.4618196 21.4541578,18.8096477 21.4541578,20.2141033 L18.4799672,20.2141033 L18.4799672,25.0117077 L21.41685,25.0117077 L21.41685,39.3776718 L26.1799453,39.3776718 L26.1799453,24.9946219 C27.6769828,24.9946219 29.1175172,24.9872994 30.5579531,25.0006751 C30.8586797,25.0033112 30.9930469,24.9362371 31.0238578,24.6096536 C31.0741594,24.0779425 31.1905125,23.5524799 31.2735937,23.0236001 C31.4184937,22.1004769 31.5594562,21.1767679 31.7097703,20.203266 L26.2080984,20.203266 C26.2080984,19.1399413 26.1395859,18.1146937 26.2272937,17.1026265 C26.3156906,16.0806984 26.9625234,15.5023185 28.0072406,15.4211852 C28.9364906,15.3489366 29.8731234,15.3686585 30.8065078,15.3524514 C31.1923828,15.3458123 31.5782578,15.3513774 31.9771266,15.3513774 L31.9771266,10.6499418 Z M23.5265625,0 L26.8734375,0 C27.4886719,0.0747871344 28.1060719,0.134831635 28.7186484,0.22660697 C34.6294266,1.11233658 39.6541687,3.69219982 43.7190469,8.04488915 C47.0501719,11.6118254 49.1553562,15.8042984 50.0058562,20.6008289 C50.1665062,21.5069639 50.2701609,22.4229598 50.4,23.334367 L50.4,26.6539004 C50.3680078,26.8093327 50.3268609,26.9635933 50.3055984,27.1205877 C50.1878672,27.9881575 50.1254578,28.8666623 49.9524047,29.7231995 C48.716325,35.8416854 45.6495047,40.8771246 40.6825453,44.7055229 C35.0784,49.0250169 28.6899047,50.688396 21.6750516,49.7435983 C15.7536422,48.9459339 10.7411062,46.2920646 6.67809844,41.940254 C3.34835156,38.3739035 1.24415156,34.1822116 0.394045312,29.3868527 C0.23349375,28.480913 0.1299375,27.5651123 0,26.6539004 L0,23.334367 C0.0751078125,22.7265019 0.135351562,22.1162935 0.227390625,21.5109669 C1.11874219,15.6480851 3.71827969,10.6634152 8.10622969,6.63115846 C11.7149484,3.31513988 15.9561281,1.22080722 20.8124437,0.385163506 C21.7125562,0.230317037 22.6216266,0.127118602 23.5265625,0 L23.5265625,0 Z" id="Fill-1"></path>
        </g>
    </g>
</svg>
