<?xml version="1.0" encoding="UTF-8"?>
<svg width="51px" height="50px" viewBox="0 0 51 50" version="1.1" xmlns="http://www.w3.org/2000/svg" xmlns:xlink="http://www.w3.org/1999/xlink">
    <title>Untitled</title>
    <g id="Page-1" stroke="none" stroke-width="1" fill="none" fill-rule="evenodd">
        <path d="M37,0.0382069431 C33.5758493,0.0382069431 30.2233251,-0.0681228538 26.8815365,0.0739830093 C24.4898479,0.175819998 22.380975,1.12147295 20.9341862,3.15721432 C19.6143793,5.01424176 19.1816007,7.15947453 19.0895095,9.3579554 C18.9935601,11.6479564 19.068206,13.9451127 19.068206,16.3387811 L14,16.3387811 L14,24.5155259 L19.0046312,24.5155259 L19.0046312,49 L27.1212422,49 L27.1212422,24.4864058 C29.6722873,24.4864058 32.1270476,24.4739258 34.5816401,24.4967226 C35.0940969,24.5012154 35.3230669,24.3868984 35.3755707,23.8302894 C35.4612877,22.9240733 35.6595607,22.0285069 35.8011363,21.1271164 C36.0480549,19.5538015 36.2882638,17.9794882 36.5444083,16.3203107 L27.1692169,16.3203107 C27.1692169,14.5080449 27.0524673,12.7606753 27.2019269,11.0357697 C27.3525606,9.29405768 28.454804,8.30830226 30.2350672,8.1700236 C31.818567,8.04688737 33.4146477,8.08050023 35.0051928,8.05287778 C35.6627478,8.04156256 36.3203028,8.05104738 37,8.05104738 L37,0.0382069431 Z" id="Fill-1" fill="#FFFFFF"></path>
    </g>
</svg>
