<?xml version="1.0" encoding="UTF-8"?>
<svg width="51px" height="50px" viewBox="0 0 51 50" version="1.1" xmlns="http://www.w3.org/2000/svg" xmlns:xlink="http://www.w3.org/1999/xlink">
    <title>Untitled</title>
    <g id="Page-1" stroke="none" stroke-width="1" fill="none" fill-rule="evenodd">
        <g id="Email" fill="#FFFFFF">
            <path d="M40.086144,16.8703333 C40.064304,17.0885 39.828936,17.348 39.620784,17.476 C34.960464,20.339 30.293592,23.1915 25.6116,26.0195 C25.395216,26.1501667 24.95892,26.148 24.741024,26.0175 C20.097,23.2345 15.4644,20.4328333 10.851792,17.5991667 C10.569048,17.4253333 10.368792,16.9741667 10.309152,16.6221667 C10.218768,16.0883333 10.285632,15.5283333 10.285632,14.9196667 L40.10832,14.9196667 C40.10832,15.6081667 40.148808,16.2443333 40.086144,16.8703333 L40.086144,16.8703333 Z M40.069008,33.9933333 C37.290624,30.5278333 34.663944,27.2516667 31.960656,23.88 C34.659408,22.2295 37.302888,20.613 40.069008,18.9213333 L40.069008,33.9933333 Z M10.345272,33.9333333 L10.345272,19.0258333 C13.056456,20.6673333 15.687,22.2601667 18.391128,23.8973333 C15.720432,27.2285 13.101312,30.4955 10.345272,33.9333333 L10.345272,33.9333333 Z M11.293464,35.0903333 C14.117544,31.5658333 16.869552,28.1311667 19.647432,24.6643333 C21.338856,25.6873333 22.96896,26.6516667 24.572352,27.6576667 C25.005624,27.9296667 25.319448,27.9561667 25.766664,27.6716667 C27.367536,26.6536667 28.999824,25.684 30.70536,24.644 C33.467784,28.0941667 36.220632,31.5321667 39.069576,35.0903333 L11.293464,35.0903333 Z M49.582848,18.7706667 C47.099304,8.819 38.292912,1.2315 28.03248,0.160666667 C27.757632,0.132 27.487992,0.0546666667 27.216,0 L23.184,0 C21.730296,0.272833333 20.25996,0.478833333 18.825408,0.829333333 C8.967,3.23833333 1.282512,11.9968333 0.17556,22.0358333 C0.139944,22.3596667 0.059472,22.6786667 0,23 L0,27 C0.274344,28.4381667 0.481152,29.8928333 0.833952,31.3118333 C3.275664,41.1315 12.139848,48.7663333 22.284528,49.8311667 C22.586928,49.8628333 22.884288,49.9425 23.184,50 L27.216,50 C28.6692,49.7265 30.1392,49.5201667 31.573248,49.1686667 C41.436192,46.752 49.111104,38.0043333 50.223264,27.9626667 C50.259048,27.6391667 50.340024,27.3206667 50.4,27 L50.4,23 C50.1312,21.5893333 49.930104,20.162 49.582848,18.7706667 L49.582848,18.7706667 Z" id="Fill-1"></path>
        </g>
    </g>
</svg>
