<?xml version="1.0" encoding="UTF-8"?>
<svg width="36px" height="36px" viewBox="0 0 36 36" version="1.1" xmlns="http://www.w3.org/2000/svg" xmlns:xlink="http://www.w3.org/1999/xlink">
    <title></title>
    <desc></desc>
    <defs></defs>
    <g id="Page-1" stroke="none" stroke-width="1" fill-rule="evenodd">
        <g id="Group" transform="translate(1.000000, 6.000000)">
            <path d="M33.5326339,2.247168 C33.5080784,2.498496 33.243445,2.79744 33.0094117,2.944896 C27.7696339,6.243072 22.5224895,9.529152 17.258345,12.787008 C17.0150562,12.937536 16.5245117,12.93504 16.2795228,12.784704 C11.0580673,9.578688 5.84945615,6.351168 0.663322818,3.086784 C0.345422818,2.886528 0.120267263,2.366784 0.0532117071,1.96128 C-0.0484105151,1.346304 0.0267672626,0.701184 0.0267672626,0 L33.5575673,0 C33.5575673,0.793152 33.6030895,1.526016 33.5326339,2.247168 L33.5326339,2.247168 Z" id="Path"></path>
            <path d="M33.5133673,21.972864 C30.3895228,17.980608 27.436245,14.206464 24.3968339,10.322304 C27.431145,8.420928 30.4033117,6.55872 33.5133673,4.60992 L33.5133673,21.972864 Z" id="Path"></path>
            <path d="M0.0938228182,21.903744 L0.0938228182,4.730304 C3.14211171,6.621312 6.09973393,8.456256 9.14008948,10.342272 C6.13732282,14.179776 3.19254504,17.94336 0.0938228182,21.903744 L0.0938228182,21.903744 Z" id="Path"></path>
            <path d="M1.15991171,23.236608 C4.33513393,19.176384 7.42932282,15.219648 10.5526006,11.225856 C12.4543339,12.404352 14.2871228,13.515264 16.0898784,14.674176 C16.5770228,14.98752 16.9298673,15.018048 17.4326895,14.690304 C19.2326117,13.517568 21.0678562,12.400512 22.9854562,11.202432 C26.0913562,15.177024 29.1864895,19.1376 32.3896673,23.236608 L1.15991171,23.236608 Z" id="Path"></path>
        </g>
    </g>
</svg>
