<?xml version="1.0" encoding="UTF-8"?>
<svg width="51px" height="50px" viewBox="0 0 51 50" version="1.1" xmlns="http://www.w3.org/2000/svg" xmlns:xlink="http://www.w3.org/1999/xlink">
    <title>Untitled</title>
    <g id="Page-1" stroke="none" stroke-width="1" fill="none" fill-rule="evenodd">
        <path d="M49.9413194,11.2880751 C49.9047479,11.6558203 49.5106203,12.0932377 49.1620663,12.3089966 C41.3582828,17.1349154 33.5435279,21.9431352 25.7034542,26.7100575 C25.3411156,26.9303113 24.6105307,26.9266592 24.2456602,26.7066863 C16.4691646,22.0156167 8.71179873,17.2930824 0.987909771,12.5166083 C0.514450231,12.223592 0.179118222,11.4630982 0.0792500483,10.8697614 C-0.0720994659,9.96992332 0.0398654163,9.02597832 0.0398654163,8 L49.9784535,8 C49.9784535,9.16054667 50.0462513,10.2328794 49.9413194,11.2880751 L49.9413194,11.2880751 Z M49.9126249,40.1508792 C45.2601745,34.3093767 40.8617551,28.7870175 36.3350543,23.1036819 C40.8541595,20.3215726 45.2807108,17.5967742 49.9126249,14.7452737 L49.9126249,40.1508792 Z M0.13973359,40.0497422 L0.13973359,14.9214205 C4.67965638,17.6883593 9.08454614,20.3732648 13.6126535,23.1328993 C9.14052858,28.7479673 4.7547685,34.2548751 0.13973359,40.0497422 L0.13973359,40.0497422 Z M1.7274969,42 C6.45646592,36.0590461 11.0647492,30.2695168 15.7163555,24.4257668 C18.5486732,26.150152 21.2783095,27.7756478 23.9632161,29.4713776 C24.6887373,29.9298652 25.2142408,29.974534 25.9631115,29.4949762 C28.6437983,27.779019 31.3770918,26.1445333 34.2330402,24.3914926 C38.8587653,30.207149 43.4684551,36.0022971 48.2390593,42 L1.7274969,42 Z" id="Fill-1" fill="#FFFFFF"></path>
    </g>
</svg>
