<?xml version="1.0" encoding="UTF-8"?>
<svg width="50px" height="50px" viewBox="0 0 50 50" version="1.1" xmlns="http://www.w3.org/2000/svg" xmlns:xlink="http://www.w3.org/1999/xlink">
    <!-- Generator: Sketch 47.1 (45422) - http://www.bohemiancoding.com/sketch -->
    <title>Untitled 2</title>
    <desc>Created with Sketch.</desc>
    <defs>
        <polygon id="path-1" points="0 50 50 50 50 0 0 0"></polygon>
    </defs>
    <g id="Page-1" stroke="none" stroke-width="1" fill="none" fill-rule="evenodd">
        <g id="Email">
            <mask id="mask-2" fill="white">
                <use xlink:href="#path-1"></use>
            </mask>
            <g id="Clip-2"></g>
            <path d="M39.768,16.8703333 C39.7463333,17.0885 39.5128333,17.348 39.3063333,17.476 C34.683,20.339 30.0531667,23.1915 25.4083333,26.0195 C25.1936667,26.1501667 24.7608333,26.148 24.5446667,26.0175 C19.9375,23.2345 15.3416667,20.4328333 10.7656667,17.5991667 C10.4851667,17.4253333 10.2865,16.9741667 10.2273333,16.6221667 C10.1376667,16.0883333 10.204,15.5283333 10.204,14.9196667 L39.79,14.9196667 C39.79,15.6081667 39.8301667,16.2443333 39.768,16.8703333 L39.768,16.8703333 Z M39.751,33.9933333 C36.9946667,30.5278333 34.3888333,27.2516667 31.707,23.88 C34.3843333,22.2295 37.0068333,20.613 39.751,18.9213333 L39.751,33.9933333 Z M10.2631667,33.9333333 L10.2631667,19.0258333 C12.9528333,20.6673333 15.5625,22.2601667 18.2451667,23.8973333 C15.5956667,27.2285 12.9973333,30.4955 10.2631667,33.9333333 L10.2631667,33.9333333 Z M11.2038333,35.0903333 C14.0055,31.5658333 16.7356667,28.1311667 19.4915,24.6643333 C21.1695,25.6873333 22.7866667,26.6516667 24.3773333,27.6576667 C24.8071667,27.9296667 25.1185,27.9561667 25.5621667,27.6716667 C27.1503333,26.6536667 28.7696667,25.684 30.4616667,24.644 C33.2021667,28.0941667 35.9331667,31.5321667 38.7595,35.0903333 L11.2038333,35.0903333 Z M49.1893333,18.7706667 C46.7255,8.819 37.989,1.2315 27.81,0.160666667 C27.5373333,0.132 27.2698333,0.0546666667 27,0 L23,0 C21.5578333,0.272833333 20.0991667,0.478833333 18.676,0.829333333 C8.89583333,3.23833333 1.27233333,11.9968333 0.174166667,22.0358333 C0.138833333,22.3596667 0.059,22.6786667 0,23 L0,27 C0.272166667,28.4381667 0.477333333,29.8928333 0.827333333,31.3118333 C3.24966667,41.1315 12.0435,48.7663333 22.1076667,49.8311667 C22.4076667,49.8628333 22.7026667,49.9425 23,50 L27,50 C28.4416667,49.7265 29.9,49.5201667 31.3226667,49.1686667 C41.1073333,46.752 48.7213333,38.0043333 49.8246667,27.9626667 C49.8601667,27.6391667 49.9405,27.3206667 50,27 L50,23 C49.7333333,21.5893333 49.5338333,20.162 49.1893333,18.7706667 L49.1893333,18.7706667 Z" id="Fill-1" fill="#FFFFFF" mask="url(#mask-2)"></path>
        </g>
    </g>
</svg>