<?xml version="1.0" encoding="UTF-8"?>
<svg width="50px" height="50px" viewBox="0 0 50 50" version="1.1" xmlns="http://www.w3.org/2000/svg" xmlns:xlink="http://www.w3.org/1999/xlink">
    <!-- Generator: Sketch 47.1 (45422) - http://www.bohemiancoding.com/sketch -->
    <title>Untitled 2</title>
    <desc>Created with Sketch.</desc>
    <defs>
        <polygon id="path-1" points="2.59051507e-15 0 50 0 50 50 0 50"></polygon>
    </defs>
    <g id="Page-1" stroke="none" stroke-width="1" fill="none" fill-rule="evenodd">
        <g id="Twitter">
            <mask id="mask-2" fill="white">
                <use xlink:href="#path-1"></use>
            </mask>
            <g id="Clip-2"></g>
            <path d="M39.6066667,12.9722325 C39.55,12.9572367 39.525,12.9405746 39.51,12.9472394 C39.4266667,12.984729 39.3441667,13.0247179 39.265,13.0688723 C38.3325,13.5870618 37.34,13.9444626 36.3158333,14.2418801 C35.8083333,14.3901722 35.4266667,14.3626799 35.095,13.9244682 C34.9883333,13.7836739 34.8166667,13.6895334 34.6683333,13.5845625 C32.28,11.8933653 29.14,11.9983362 26.9158333,13.866151 C25.2333333,15.2782591 24.4683333,17.1194147 24.6491667,19.3288014 C24.6716667,19.6070575 24.7058333,19.8844805 24.74,20.2110565 C19.435,19.8294957 15.1066667,17.620109 11.6583333,13.5828963 C11.0825,14.5976147 10.7891667,15.6398254 10.8025,16.7511835 C10.8291667,18.9372434 11.7725,20.6692626 13.5758333,22.0263859 C12.5241667,22.002226 11.6408333,21.7048085 10.7866667,21.2774272 C10.665,22.1013651 11.0058333,23.5134731 11.5758333,24.4790385 C12.515,26.0677641 13.8916667,27.086648 15.7725,27.5665148 C14.8083333,27.8239433 13.93,27.8264426 12.9708333,27.6773173 C14.03,30.4073929 15.9733333,31.8428277 18.8791667,32.1219169 C16.1066667,34.2146694 13.0508333,35.0386073 9.66666667,34.8020063 C10.1091667,35.0910928 10.5541667,35.3368579 11.0041667,35.5759582 C13.5016667,36.9030898 16.1825,37.5287495 18.9941667,37.5845673 C21.5333333,37.6345534 23.9941667,37.2013403 26.3508333,36.2332757 C27.9983333,35.5559637 29.5008333,34.6353859 30.8616667,33.4890375 C32.2241667,32.3418559 33.3575,30.9922305 34.3308333,29.5043102 C35.1025,28.3254708 35.7291667,27.0699859 36.2091667,25.7503522 C37.0116667,23.5426317 37.4083333,21.2590989 37.3558333,18.9030862 C37.3525,18.7739554 37.45,18.6131667 37.5483333,18.5156938 C38.3016667,17.7725667 39.0758333,17.0502672 39.8216667,16.3004753 C40.0525,16.0688729 40.2166667,15.7706224 40.41,15.5056959 C39.27,15.8172761 38.155,16.1213584 37.04,16.4262737 C37.0208333,16.387951 37.0025,16.3496283 36.9833333,16.3121388 C38.2133333,15.4740381 39.1283333,14.3976702 39.6066667,12.9722325 M23.4825,0 L26.5175,0 C26.62,0.0233268583 26.7216667,0.0541516353 26.825,0.0699805748 C28.0841667,0.260760951 29.36,0.380727651 30.6008333,0.653152032 C34.7616667,1.56706501 38.4208333,3.49652943 41.6041667,6.31241447 C43.6575,8.12857701 45.3641667,10.2379915 46.7216667,12.6273282 C48.3225,15.4457126 49.3483333,18.452378 49.765,21.6664858 C49.8433333,22.2696517 49.9216667,22.8728176 50,23.4759835 L50,26.5101413 C49.9758333,26.6259425 49.9458333,26.7409106 49.9275,26.8575449 C49.7366667,28.1046987 49.6041667,29.363516 49.3466667,30.596507 C48.7966667,33.2349413 47.7616667,35.6942587 46.3575,37.9894549 C44.5875,40.879486 42.3208333,43.3163096 39.5658333,45.3007588 C36.685,47.375183 33.5008333,48.7639641 30.0341667,49.481265 C26.8208333,50.1452474 23.5858333,50.1744059 20.3566667,49.5537449 C17.2575,48.95891 14.3666667,47.8317229 11.6916667,46.1438581 C8.36083333,44.0411084 5.66916667,41.3093667 3.62416667,37.9536315 C1.81,34.9761247 0.664166667,31.7520196 0.2325,28.2829826 C0.158333333,27.6914801 0.0775,27.1008107 0,26.5101413 L0,23.4759835 C0.025,23.3601824 0.055,23.2460474 0.0725,23.1294131 C0.263333333,21.8830924 0.384166667,20.6217758 0.654166667,19.3929502 C1.5675,15.2332716 3.49666667,11.5751203 6.31416667,8.39350347 C8.13083333,6.34157304 10.2391667,4.63537998 12.63,3.27908979 C15.4483333,1.6795338 18.4558333,0.65231893 21.67,0.235767889 C22.2741667,0.157456293 22.8783333,0.0783115956 23.4825,0" id="Fill-1" fill="#FFFFFF" mask="url(#mask-2)"></path>
        </g>
    </g>
</svg>