<?xml version="1.0" encoding="UTF-8"?>
<svg width="51px" height="50px" viewBox="0 0 51 50" version="1.1" xmlns="http://www.w3.org/2000/svg" xmlns:xlink="http://www.w3.org/1999/xlink">
    <title>Untitled</title>
    <g id="Page-1" stroke="none" stroke-width="1" fill="none" fill-rule="evenodd">
        <path d="M49.6934837,5.95244059 C49.6013228,5.92804419 49.5606636,5.90093709 49.536268,5.91177993 C49.4007373,5.97277092 49.2665619,6.03782797 49.1378077,6.1096618 C47.6212187,6.9526928 46.0070476,7.53414022 44.3413748,8.01800206 C43.5159926,8.2592553 42.8952618,8.21452858 42.3558495,7.50161169 C42.1823702,7.27255665 41.9031768,7.1194015 41.6619321,6.94862673 C37.7776212,4.19725547 32.6708229,4.36803024 29.0535075,7.40673682 C26.3171419,9.70406405 25.0729697,12.6993993 25.3670715,16.2938015 C25.4036648,16.7464902 25.4592324,17.1978235 25.5148,17.7291228 C16.8869132,17.10837 9.8474466,13.5139678 4.23918465,6.94591602 C3.30266724,8.59673877 2.82559905,10.2922883 2.84728396,12.1003322 C2.8906538,15.6567845 4.42486176,18.4745682 7.35774694,20.682442 C5.64734902,20.6431367 4.21072319,20.1592748 2.82153312,19.4639776 C2.62365825,20.8044239 3.17797897,23.1017512 4.10500922,24.672608 C5.63244064,27.2572705 7.87140844,28.9148701 10.9303372,29.6955547 C9.36224656,30.1143595 7.93375258,30.1184256 6.37379378,29.875817 C8.09638946,34.3173163 11.2569663,36.6525935 15.9829231,37.1066375 C11.4738155,40.51129 6.50390329,41.8517364 1,41.4668155 C1.71966822,41.9371238 2.44340236,42.3369536 3.17526835,42.7259405 C7.23712458,44.8850215 11.5971484,45.9028934 16.1699555,45.9937022 C20.2995771,46.0750235 24.3017998,45.3702387 28.1346091,43.7953159 C30.8140518,42.693412 33.257671,41.1957444 35.470888,39.3307755 C37.6868156,37.4644513 39.5300336,35.2687757 41.1130326,32.8481111 C42.3680473,30.9302834 43.3872384,28.8877629 44.1678955,26.7408802 C45.4730565,23.1491886 46.1181828,19.4341597 46.0327984,15.601215 C46.0273772,15.3911349 46.1859482,15.1295513 46.3458744,14.9709747 C47.5710723,13.7619978 48.8301529,12.5869048 50.043153,11.367085 C50.4185731,10.9902962 50.6855687,10.505079 51,10.074076 C49.1459395,10.5809789 47.3325382,11.0756836 45.5191369,11.5717437 C45.4879649,11.5093973 45.4581481,11.447051 45.426976,11.38606 C47.4274097,10.0225725 48.9155372,8.2714535 49.6934837,5.95244059" id="Fill-1" fill="#FFFFFF"></path>
    </g>
</svg>
