<?xml version="1.0" encoding="UTF-8"?>
<svg width="51px" height="50px" viewBox="0 0 51 50" version="1.1" xmlns="http://www.w3.org/2000/svg" xmlns:xlink="http://www.w3.org/1999/xlink">
    <title>Untitled</title>
    <g id="Page-1" stroke="none" stroke-width="1" fill="none" fill-rule="evenodd">
        <g id="Twitter" fill="#FFFFFF">
            <path d="M39.92352,12.9722325 C39.8664,12.9572367 39.8412,12.9405746 39.82608,12.9472394 C39.74208,12.984729 39.65892,13.0247179 39.57912,13.0688723 C38.63916,13.5870618 37.63872,13.9444626 36.60636,14.2418801 C36.0948,14.3901722 35.71008,14.3626799 35.37576,13.9244682 C35.26824,13.7836739 35.0952,13.6895334 34.94568,13.5845625 C32.53824,11.8933653 29.37312,11.9983362 27.13116,13.866151 C25.4352,15.2782591 24.66408,17.1194147 24.84636,19.3288014 C24.86904,19.6070575 24.90348,19.8844805 24.93792,20.2110565 C19.59048,19.8294957 15.22752,17.620109 11.7516,13.5828963 C11.17116,14.5976147 10.87548,15.6398254 10.88892,16.7511835 C10.9158,18.9372434 11.86668,20.6692626 13.68444,22.0263859 C12.62436,22.002226 11.73396,21.7048085 10.87296,21.2774272 C10.75032,22.1013651 11.09388,23.5134731 11.66844,24.4790385 C12.61512,26.0677641 14.0028,27.086648 15.89868,27.5665148 C14.9268,27.8239433 14.04144,27.8264426 13.0746,27.6773173 C14.14224,30.4073929 16.10112,31.8428277 19.0302,32.1219169 C16.23552,34.2146694 13.15524,35.0386073 9.744,34.8020063 C10.19004,35.0910928 10.6386,35.3368579 11.0922,35.5759582 C13.60968,36.9030898 16.31196,37.5287495 19.14612,37.5845673 C21.7056,37.6345534 24.18612,37.2013403 26.56164,36.2332757 C28.22232,35.5559637 29.73684,34.6353859 31.10856,33.4890375 C32.48196,32.3418559 33.62436,30.9922305 34.60548,29.5043102 C35.38332,28.3254708 36.015,27.0699859 36.49884,25.7503522 C37.30776,23.5426317 37.7076,21.2590989 37.65468,18.9030862 C37.65132,18.7739554 37.7496,18.6131667 37.84872,18.5156938 C38.60808,17.7725667 39.38844,17.0502672 40.14024,16.3004753 C40.37292,16.0688729 40.5384,15.7706224 40.73328,15.5056959 C39.58416,15.8172761 38.46024,16.1213584 37.33632,16.4262737 C37.317,16.387951 37.29852,16.3496283 37.2792,16.3121388 C38.51904,15.4740381 39.44136,14.3976702 39.92352,12.9722325 M23.67036,0 L26.72964,0 C26.83296,0.0233268583 26.93544,0.0541516353 27.0396,0.0699805748 C28.30884,0.260760951 29.59488,0.380727651 30.84564,0.653152032 C35.03976,1.56706501 38.7282,3.49652943 41.937,6.31241447 C44.00676,8.12857701 45.72708,10.2379915 47.09544,12.6273282 C48.70908,15.4457126 49.74312,18.452378 50.16312,21.6664858 C50.24208,22.2696517 50.32104,22.8728176 50.4,23.4759835 L50.4,26.5101413 C50.37564,26.6259425 50.3454,26.7409106 50.32692,26.8575449 C50.13456,28.1046987 50.001,29.363516 49.74144,30.596507 C49.18704,33.2349413 48.14376,35.6942587 46.72836,37.9894549 C44.9442,40.879486 42.6594,43.3163096 39.88236,45.3007588 C36.97848,47.375183 33.76884,48.7639641 30.27444,49.481265 C27.0354,50.1452474 23.77452,50.1744059 20.51952,49.5537449 C17.39556,48.95891 14.4816,47.8317229 11.7852,46.1438581 C8.42772,44.0411084 5.71452,41.3093667 3.65316,37.9536315 C1.82448,34.9761247 0.66948,31.7520196 0.23436,28.2829826 C0.1596,27.6914801 0.07812,27.1008107 0,26.5101413 L0,23.4759835 C0.0252,23.3601824 0.05544,23.2460474 0.07308,23.1294131 C0.26544,21.8830924 0.38724,20.6217758 0.6594,19.3929502 C1.58004,15.2332716 3.52464,11.5751203 6.36468,8.39350347 C8.19588,6.34157304 10.32108,4.63537998 12.73104,3.27908979 C15.57192,1.6795338 18.60348,0.65231893 21.84336,0.235767889 C22.45236,0.157456293 23.06136,0.0783115956 23.67036,0" id="Fill-1"></path>
        </g>
    </g>
</svg>
