<?xml version="1.0" encoding="UTF-8"?>
<svg width="36px" height="36px" viewBox="0 0 36 36" version="1.1" xmlns="http://www.w3.org/2000/svg" xmlns:xlink="http://www.w3.org/1999/xlink">
    <title></title>
    <desc></desc>
    <defs></defs>
    <g id="Page-1" stroke="none" stroke-width="1" fill-rule="evenodd">
        <path d="M34.1115689,4.65044723 C34.0488995,4.63378628 34.0212512,4.61527411 34.0046623,4.62267897 C33.9125014,4.66433136 33.8212621,4.70876057 33.7337092,4.75781782 C32.7024287,5.3335463 31.6047924,5.73063235 30.4721349,6.06107458 C29.910875,6.22583289 29.4887781,6.19528781 29.1219777,5.70841774 C29.0040117,5.55198991 28.8141603,5.44739615 28.6501138,5.33076947 C26.0087824,3.45178423 22.5361596,3.5684109 20.0763851,5.64362515 C18.2156565,7.21253155 17.3696194,9.25812633 17.5696086,11.7128401 C17.594492,12.0219933 17.632278,12.3302209 17.670064,12.6930595 C11.8031009,12.2691308 7.01626369,9.81441703 3.20264556,5.32891826 C2.56581373,6.45630941 2.24140735,7.61424564 2.2561531,8.84900737 C2.28564458,11.2778041 3.328906,13.2021441 5.32326792,14.7099604 C4.16019733,14.6831177 3.18329177,14.3526755 2.23864252,13.8778383 C2.10408761,14.7932651 2.4810257,16.3621715 3.11140627,17.4349518 C4.15005963,19.2000872 5.67255774,20.3321064 7.7526293,20.8652569 C6.68632766,21.1512699 5.71495175,21.1540467 4.65417977,20.9883628 C5.82554483,24.0215818 7.97473707,25.6164053 11.1883877,25.9264841 C8.12219451,28.2516127 4.74265423,29.1670395 1,28.9041667 C1.48937439,29.2253528 1.98151361,29.4984073 2.47918248,29.764057 C5.24124471,31.2385513 8.20606093,31.9336833 11.3155698,31.995699 C14.1237125,32.0512356 16.8452239,31.5699191 19.4515342,30.4943621 C21.2735552,29.7418424 22.9352163,28.719045 24.4402038,27.4454077 C25.9470346,26.1708448 27.2004229,24.671359 28.2768622,23.0182222 C29.1302721,21.7084862 29.8233221,20.3135942 30.3541689,18.8474303 C31.2416784,16.3945678 31.6803643,13.8574749 31.6223029,11.2398541 C31.6186165,11.0963848 31.7264448,10.9177424 31.8351946,10.8094462 C32.6683292,9.98380339 33.524504,9.18130082 34.349344,8.34825317 C34.6046297,8.09093401 34.7861867,7.75956617 35,7.46522267 C33.7392389,7.81140025 32.506126,8.14924735 31.2730131,8.48802006 C31.2518161,8.44544207 31.2315407,8.40286407 31.2103437,8.36121169 C32.5706386,7.43004954 33.5825653,6.23416337 34.1115689,4.65044723" id="Path"></path>
    </g>
</svg>
