<?xml version="1.0" encoding="UTF-8"?>
<svg width="50px" height="51px" viewBox="0 0 50 51" version="1.1" xmlns="http://www.w3.org/2000/svg" xmlns:xlink="http://www.w3.org/1999/xlink">
    <title>Untitled</title>
    <g id="Page-1" stroke="none" stroke-width="1" fill="none" fill-rule="evenodd">
        <path d="M12.997238,19.4460573 C13.0541334,19.9134453 13.0843035,20.3857991 13.1722004,20.8473935 C13.534122,22.7501698 14.5051457,24.3635036 15.6147853,25.9142905 C18.953919,30.5809577 23.1087126,34.1553583 28.7633369,35.7673916 C30.0637366,36.1380622 31.359385,36.256535 32.690905,36.0567157 C34.8781136,35.7283736 36.7037569,34.0112283 37.0471489,31.9574643 C37.2847082,30.5367373 37.2194982,30.4092787 35.9269379,29.7665463 C35.7855902,29.6961957 35.6459053,29.6219434 35.5031321,29.5546669 C34.289204,28.9814575 33.0850159,28.3862561 31.8564779,27.8459164 C31.1411868,27.5312897 30.8992327,27.6457424 30.4371798,28.2383426 C29.9158559,28.9070869 29.383723,29.5682641 28.8368615,30.2163171 C28.3117366,30.8385945 28.0741773,30.8819872 27.3447514,30.5878154 C23.9230659,29.2078799 21.3087256,26.9025092 19.4001741,23.7700758 C19.0679474,23.2246519 19.1177161,22.8228851 19.5403341,22.3482847 C20.0611829,21.7636064 20.5425969,21.1319882 20.9501299,20.4654904 C21.1078692,20.2074989 21.1319815,19.7540628 21.019616,19.4658027 C20.3974481,17.8699679 19.7293126,16.2910408 19.0388464,14.7229914 C18.9134151,14.4379237 18.63749,14.0518823 18.38734,14.0160567 C17.2192609,13.8488707 16.0298014,13.6660774 15.0597279,14.672268 C13.7674053,16.0129491 13.0340597,17.5664554 12.997238,19.4460573 M24.5838371,49.6986979 C20.9099823,49.5128305 17.407883,48.7134351 14.1161423,47.0763358 C13.7330779,46.8858571 13.393962,46.8745064 12.9910614,46.9806826 C9.24439474,47.9693743 5.49357075,48.9422223 1.743697,49.9184991 C0.455650411,50.2538172 -0.264035526,49.5273736 0.0899278494,48.2369429 C1.09005256,44.5892359 2.10549984,40.9455489 3.08626346,37.2927576 C3.16750874,36.9900728 3.12284759,36.5865324 2.98518197,36.3027654 C-1.23197095,27.6113356 -0.881927298,19.1239817 4.41612049,11.031064 C7.9361556,5.65403325 12.9650487,2.11463061 19.2882837,0.712230248 C28.6109426,-1.35560382 36.7022128,1.08727569 43.3253664,7.93611144 C47.316838,12.0636213 49.4761333,17.0990674 49.9171622,22.827851 C50.4118795,29.2547015 48.6938505,35.0559639 44.6787418,40.1046525 C40.4494734,45.4225651 34.9217057,48.5734434 28.1291723,49.4273457 C26.9545603,49.5749045 25.7659322,49.6109666 24.5838371,49.6986979" fill="#FFFFFF"></path>
    </g>
</svg>
