<?xml version="1.0" encoding="UTF-8"?>
<svg width="36px" height="36px" viewBox="0 0 36 36" version="1.1" xmlns="http://www.w3.org/2000/svg" xmlns:xlink="http://www.w3.org/1999/xlink">
    <title></title>
    <desc></desc>
    <defs></defs>
    <g id="Page-1" stroke="none" stroke-width="1" fill-rule="evenodd">
        <g id="Group" transform="translate(1.000000, 1.000000)">
            <path d="M8.76738572,13.1777711 C8.80576498,13.4945002 8.82611641,13.8145944 8.88540796,14.1273974 C9.12954494,15.4168285 9.78455635,16.5101166 10.5330721,17.5610193 C12.7855102,20.7234225 15.5881578,23.1456427 19.4025276,24.2380495 C20.2797221,24.4892373 21.1537117,24.5695213 22.0518986,24.4341122 C23.5272968,24.2116086 24.7587983,23.0479718 24.990436,21.6562228 C25.1506835,20.6934562 25.1066955,20.6070828 24.2347892,20.1715303 C24.139442,20.1238567 24.0452165,20.073539 23.9489078,20.0279486 C23.1300434,19.6395088 22.3177491,19.236166 21.4890294,18.8700006 C21.0065244,18.6567913 20.8433124,18.7343511 20.5316311,19.1359312 C20.1799681,19.589111 19.8210138,20.0371628 19.4521242,20.4763209 C19.0978972,20.8980121 18.9376498,20.9274175 18.44561,20.7280696 C16.137486,19.7929457 14.3739629,18.2306934 13.086535,16.1079757 C12.8624289,15.738365 12.8960008,15.4661046 13.181081,15.1444879 C13.5324235,14.7482761 13.8571649,14.3202552 14.1320694,13.8685978 C14.2384737,13.6937679 14.2547388,13.3864934 14.1789418,13.1911518 C13.7592538,12.1097219 13.3085578,11.0397497 12.8427986,9.97714896 C12.758188,9.78397067 12.5720606,9.52236672 12.40332,9.49808924 C11.6153834,9.38479429 10.8130244,9.26092302 10.158654,9.94277588 C9.28690792,10.8512988 8.79222407,11.9040443 8.76738572,13.1777711 M16.5832143,33.678707 C14.1049876,33.5527525 11.7426198,33.011036 9.52215117,31.901643 C9.26375217,31.7725636 9.03499895,31.7648718 8.76321929,31.8368229 C6.23587677,32.5068174 3.70572993,33.1660754 1.17622407,33.8276569 C0.30736245,34.0548878 -0.178107172,33.5626077 0.0606615147,32.6881374 C0.735303241,30.2162405 1.42028093,27.7470678 2.08186249,25.2717256 C2.13666711,25.0666089 2.10654059,24.7931466 2.0136772,24.6008497 C-0.83103537,18.7110351 -0.594910766,12.9595141 2.97892766,7.47528579 C5.35339412,3.83149935 8.74567219,1.43299578 13.0110584,0.482648335 C19.2997289,-0.918635411 24.7577567,0.736800777 29.2254554,5.37796728 C31.9179329,8.17500624 33.374502,11.5873152 33.6720014,15.4694697 C34.0057167,19.8246747 32.8468072,23.755945 30.1383851,27.1772279 C27.2854999,30.7809525 23.5567022,32.9161695 18.9747471,33.494823 C18.1824036,33.5948174 17.3806055,33.6192552 16.5832143,33.678707" id="Path"></path>
        </g>
    </g>
</svg>
