<?xml version="1.0" encoding="UTF-8"?>
<svg width="50px" height="50px" viewBox="0 0 50 50" version="1.1" xmlns="http://www.w3.org/2000/svg" xmlns:xlink="http://www.w3.org/1999/xlink">
    <!-- Generator: Sketch 47.1 (45422) - http://www.bohemiancoding.com/sketch -->
    <title>Untitled 2</title>
    <desc>Created with Sketch.</desc>
    <defs></defs>
    <g id="Page-1" stroke="none" stroke-width="1" fill="none" fill-rule="evenodd">
        <g fill="#FFFFFF">
            <path d="M30.5405882,27.2422549 C30.465098,27.205 30.3905882,27.1657843 30.315098,27.1295098 C29.6660784,26.8246078 29.0229412,26.5079412 28.3670588,26.2206863 C27.9856863,26.0530392 27.8562745,26.1138235 27.6092157,26.4295098 C27.3307843,26.7853922 27.0464706,27.1373529 26.7543137,27.4814706 C26.474902,27.8128431 26.347451,27.8363725 25.9582353,27.6795098 C24.1307843,26.9451961 22.7347059,25.7177451 21.7160784,24.0510784 C21.5376471,23.7608824 21.565098,23.5471569 21.7905882,23.2951961 C22.0680392,22.9834314 22.3258824,22.6471569 22.5435294,22.2922549 C22.6278431,22.1559804 22.6405882,21.9138235 22.5798039,21.7608824 C22.2484314,20.9108824 21.8915686,20.0716667 21.5229412,19.2363725 C21.4552941,19.0853922 21.3082353,18.8795098 21.174902,18.859902 C20.5513725,18.7716667 19.9160784,18.6746078 19.397451,19.209902 C18.7082353,19.9226471 18.3160784,20.750098 18.2964706,21.750098 C18.3268627,21.9991176 18.3435294,22.250098 18.3896078,22.4961765 C18.5837255,23.5079412 19.1023529,24.3667647 19.6945098,25.1922549 C21.4768627,27.6755882 23.6964706,29.5785294 26.715098,30.4363725 C27.4101961,30.6334314 28.1013725,30.6961765 28.8121569,30.5902941 C29.9807843,30.4148039 30.9552941,29.5010784 31.1386275,28.4079412 C31.2660784,27.6520588 31.2307843,27.5844118 30.5405882,27.2422549" id="Fill-1"></path>
            <path d="M35.6341337,33.1350762 C33.3483741,35.9992203 30.3622037,37.6956826 26.691496,38.1560092 C26.0565627,38.2353758 25.4146849,38.2542254 24.7757834,38.3018454 C22.7906249,38.201645 20.8977302,37.7710809 19.1199172,36.8891189 C18.9125718,36.7869344 18.7290364,36.7809819 18.5117702,36.8375306 C16.4869284,37.3702793 14.4601025,37.8940992 12.4342686,38.4199033 C11.7378263,38.6004624 11.3489296,38.2095816 11.5404017,37.5141313 C12.080095,35.5498067 12.629709,33.5874661 13.1594814,31.6211573 C13.2031331,31.4574635 13.1793231,31.2401973 13.1049169,31.0874165 C10.8261018,26.4067681 11.0155897,21.8362409 13.8777497,17.4780195 C15.7795731,14.5821287 18.497881,12.6763369 21.9136234,11.9203696 C26.9514218,10.8072522 31.3235323,12.1227545 34.9029684,15.8113198 C37.0597572,18.0335861 38.2264471,20.7459415 38.464547,23.8313202 C38.7324095,27.2917063 37.8038196,30.4157762 35.6341337,33.1350762 M24.9999942,0.000490196078 C11.1931726,0.000490196078 0.000490196078,11.1931726 0.000490196078,25.0009862 C0.000490196078,38.8078078 11.1931726,50.0004902 24.9999942,50.0004902 C38.8078078,50.0004902 50.0004902,38.8078078 50.0004902,25.0009862 C50.0004902,11.1931726 38.8078078,0.000490196078 24.9999942,0.000490196078" id="Fill-3"></path>
        </g>
    </g>
</svg>